<svg width="41" height="27" viewBox="0 0 41 27" fill="none" xmlns="http://www.w3.org/2000/svg">
<g clip-path="url(#clip0_6750_137897)">
<path fill-rule="evenodd" clip-rule="evenodd" d="M1.75 0.422119H38.25C38.9882 0.422119 39.582 1.02759 39.582 1.77368V25.2268C39.582 25.9729 38.9882 26.5784 38.25 26.5784H1.75C1.01172 26.5784 0.417969 25.9729 0.417969 25.2268V1.77368C0.417969 1.02759 1.01172 0.422119 1.75 0.422119Z" fill="white" stroke="white" stroke-width="0.838525"/>
<path d="M11.0898 4.50024H28.8672V14.219L27.9883 15.6096L28.8672 16.8479V22.5002H11.0898V13.3401L11.6406 12.6995L11.0898 12.0862V4.50024Z" fill="#016FD0"/>
<path d="M14.5391 17.0432V14.219H17.4961L17.8125 14.637L18.1406 14.219H28.8672V16.8479C28.8672 16.8479 28.5859 17.0393 28.2617 17.0432H22.3203L21.9648 16.5979V17.0432H20.793V16.2815C20.793 16.2815 20.6328 16.387 20.2891 16.387H19.8867V17.0432H18.1133L17.7969 16.6174L17.4766 17.0432H14.5391ZM11.0898 12.0862L11.7539 10.5159H12.9062L13.2852 11.3948V10.5159H14.7188L14.9453 11.1526L15.1641 10.5159H21.5938V10.8362C21.5938 10.8362 21.9297 10.5159 22.4883 10.5159L24.5742 10.5198L24.9453 11.3909V10.5159H26.1445L26.4727 11.012V10.5159H27.6836V13.3401H26.4727L26.1562 12.8401V13.3401H24.3984L24.2188 12.8948H23.7461L23.5703 13.3401H22.3789C21.8984 13.3401 21.5938 13.0276 21.5938 13.0276V13.3401H19.793L19.4336 12.8948V13.3401H12.7383L12.5586 12.8948H12.0898L11.9141 13.3401H11.0898V12.0862Z" fill="white"/>
<path d="M11.9922 10.8635L11.0938 12.9768H11.6758L11.8438 12.5549H12.8086L12.9727 12.9768H13.5703L12.6719 10.8635H11.9922ZM12.3242 11.3557L12.6172 12.094H12.0273L12.3242 11.3557ZM13.6328 12.9768V10.8635H14.4648L14.9492 12.2307L15.4219 10.8635H16.2461V12.9768H15.7227V11.4182L15.168 12.9768H14.7109L14.1562 11.4182V12.9768H13.6328ZM16.6016 12.9768V10.8635H18.3086V11.3362H17.1289V11.6956H18.2812V12.1448H17.1289V12.5198H18.3086V12.9768H16.6016ZM18.6094 10.8635V12.9768H19.1328V12.2268H19.3516L19.9805 12.9768H20.6172L19.9297 12.1995C20.2109 12.176 20.5039 11.9299 20.5039 11.5471C20.5039 11.1018 20.1562 10.8635 19.7734 10.8635H18.6094ZM19.1328 11.3362H19.7305C19.8711 11.3362 19.9766 11.4495 19.9766 11.5588C19.9766 11.6995 19.8438 11.7815 19.7383 11.7815H19.1328V11.3362ZM21.25 12.9768H20.7148V10.8635H21.25V12.9768ZM22.5156 12.9768H22.3984C21.8438 12.9768 21.5039 12.5354 21.5039 11.9299C21.5039 11.3088 21.8398 10.8635 22.543 10.8635H23.1211V11.3635H22.5195C22.2344 11.3635 22.0352 11.5901 22.0352 11.9338C22.0352 12.344 22.2656 12.5159 22.5977 12.5159H22.7344L22.5156 12.9768ZM23.6523 10.8635L22.7539 12.9768H23.3359L23.5039 12.5549H24.4688L24.6328 12.9768H25.2305L24.332 10.8635H23.6523ZM23.9844 11.3557L24.2773 12.094H23.6875L23.9844 11.3557ZM25.293 12.9768V10.8635H25.957L26.8047 12.1917V10.8635H27.3281V12.9768H26.6836L25.8125 11.6135V12.9768H25.293ZM14.8984 16.6799V14.5667H16.6016V15.0393H15.4258V15.3987H16.5742V15.8479H15.4258V16.2229H16.6016V16.6799H14.8984ZM23.25 16.6799V14.5667H24.957V15.0393H23.7812V15.3987H24.9219V15.8479H23.7812V16.2229H24.957V16.6799H23.25ZM16.668 16.6799L17.5 15.637L16.6484 14.5667H17.3086L17.8125 15.2268L18.3203 14.5667H18.9531L18.1133 15.6213L18.9453 16.6799H18.2891L17.7969 16.0276L17.3164 16.6799H16.668ZM19.0078 14.5667V16.6799H19.543V16.012H20.0938C20.5586 16.012 20.9141 15.762 20.9141 15.2776C20.9141 14.8752 20.6367 14.5667 20.1641 14.5667H19.0078ZM19.543 15.0432H20.125C20.2734 15.0432 20.3828 15.137 20.3828 15.2893C20.3828 15.4299 20.2734 15.5315 20.1211 15.5315H19.543V15.0432ZM21.1406 14.5667V16.6799H21.6641V15.9299H21.8828L22.5078 16.6799H23.1484L22.4609 15.9026C22.7422 15.8791 23.0312 15.6331 23.0312 15.2502C23.0312 14.8049 22.6875 14.5667 22.3008 14.5667H21.1406ZM21.6641 15.0393H22.2578C22.4023 15.0393 22.5078 15.1526 22.5078 15.262C22.5078 15.4026 22.3711 15.4846 22.2656 15.4846H21.6641V15.0393ZM25.1992 16.6799V16.2229H26.2422C26.3984 16.2229 26.4648 16.137 26.4648 16.0432C26.4648 15.9573 26.3984 15.8635 26.2422 15.8635H25.7734C25.3594 15.8635 25.1328 15.6135 25.1328 15.2307C25.1328 14.8909 25.3398 14.5667 25.9531 14.5667H26.9688L26.75 15.0432H25.8711C25.7031 15.0432 25.6484 15.1291 25.6484 15.2151C25.6484 15.3049 25.7148 15.3987 25.8438 15.3987H26.3359C26.793 15.3987 26.9922 15.6643 26.9922 16.0081C26.9922 16.3792 26.7734 16.6799 26.3125 16.6799H25.1992ZM27.1172 16.6799V16.2229H28.1602C28.3164 16.2229 28.3828 16.137 28.3828 16.0432C28.3828 15.9573 28.3164 15.8635 28.1602 15.8635H27.6875C27.2773 15.8635 27.0508 15.6135 27.0508 15.2307C27.0508 14.8909 27.2578 14.5667 27.8711 14.5667H28.8867L28.668 15.0432H27.7852C27.6172 15.0432 27.5664 15.1291 27.5664 15.2151C27.5664 15.3049 27.6328 15.3987 27.7578 15.3987H28.2539C28.7109 15.3987 28.9102 15.6643 28.9102 16.0081C28.9102 16.3792 28.6914 16.6799 28.2305 16.6799H27.1172Z" fill="#016FD0"/>
</g>
<defs>
<clipPath id="clip0_6750_137897">
<path d="M0 2.00024C0 0.895675 0.89543 0.000244141 2 0.000244141H39C40.1046 0.000244141 41 0.895675 41 2.00024V25.0002C41 26.1048 40.1046 27.0002 39 27.0002H2C0.895431 27.0002 0 26.1048 0 25.0002V2.00024Z" fill="white"/>
</clipPath>
</defs>
</svg>
