<svg width="41" height="27" viewBox="0 0 41 27" fill="none" xmlns="http://www.w3.org/2000/svg">
<g clip-path="url(#clip0_6750_137896)">
<path fill-rule="evenodd" clip-rule="evenodd" d="M2.25 0.422119H38.75C39.4882 0.422119 40.082 1.02759 40.082 1.77368V25.2268C40.082 25.9729 39.4882 26.5784 38.75 26.5784H2.25C1.51172 26.5784 0.917969 25.9729 0.917969 25.2268V1.77368C0.917969 1.02759 1.51172 0.422119 2.25 0.422119Z" fill="white" stroke="white" stroke-width="0.838525"/>
<path d="M11.1643 9.08618C11.5042 8.65649 11.7307 8.07837 11.6721 7.48462C11.1761 7.51196 10.5745 7.82056 10.2229 8.25024C9.91043 8.61743 9.63308 9.21899 9.7034 9.7854C10.2581 9.83618 10.8128 9.50415 11.1643 9.08618Z" fill="black"/>
<path d="M11.664 9.89486C10.8593 9.84798 10.1718 10.3636 9.78897 10.3636C9.40225 10.3636 8.81241 9.9222 8.17178 9.93392C7.34366 9.94564 6.57022 10.4222 6.15225 11.1839C5.28506 12.7035 5.92178 14.9574 6.76553 16.1956C7.17569 16.8089 7.66788 17.4847 8.31631 17.4613C8.9335 17.4339 9.17178 17.055 9.91788 17.055C10.664 17.055 10.8827 17.4613 11.5312 17.4456C12.2069 17.4339 12.6288 16.8363 13.039 16.223C13.5077 15.5238 13.6991 14.848 13.7108 14.8128C13.6991 14.8011 12.4101 14.2972 12.3983 12.7894C12.3866 11.5277 13.4101 10.9261 13.4608 10.887C12.8827 10.0199 11.9804 9.9222 11.664 9.89486Z" fill="black"/>
<path d="M19.7109 8.18774C21.4648 8.18774 22.6836 9.41821 22.6836 11.2073C22.6836 13.0042 21.4375 14.2424 19.668 14.2424H17.7266V17.3831H16.3203V8.18774H19.7109ZM17.7266 13.0432H19.3359C20.5547 13.0432 21.25 12.3752 21.25 11.2151C21.25 10.0549 20.5547 9.39087 19.3398 9.39087H17.7266V13.0432Z" fill="black"/>
<path d="M23.0352 15.4768C23.0352 14.301 23.918 13.6252 25.5469 13.5237L27.293 13.4143V12.9026C27.293 12.1565 26.8086 11.7502 25.9531 11.7502C25.2461 11.7502 24.7305 12.1213 24.625 12.6877H23.3594C23.3984 11.4963 24.5 10.6292 25.9883 10.6292C27.5938 10.6292 28.6406 11.4807 28.6406 12.8088V17.3831H27.3438V16.2815H27.3125C26.9414 17.0002 26.1289 17.4534 25.2461 17.4534C23.9414 17.4534 23.0352 16.6643 23.0352 15.4768ZM27.293 14.887V14.3674L25.7344 14.4729C24.8555 14.5276 24.3984 14.8596 24.3984 15.4417C24.3984 16.0002 24.875 16.3635 25.6211 16.3635C26.5703 16.3635 27.293 15.7463 27.293 14.887Z" fill="black"/>
<path d="M29.832 19.844V18.7424C29.918 18.7541 30.1328 18.7659 30.2461 18.7659C30.8633 18.7659 31.2148 18.5002 31.4297 17.8088L31.5547 17.4026L29.1797 10.7112H30.6445L32.3008 16.1409H32.332L33.9844 10.7112H35.4102L32.9492 17.7385C32.3867 19.3518 31.7422 19.8831 30.375 19.8831C30.2695 19.8831 29.9258 19.8674 29.832 19.844Z" fill="black"/>
</g>
<defs>
<clipPath id="clip0_6750_137896">
<path d="M0 2.00024C0 0.895675 0.89543 0.000244141 2 0.000244141H39C40.1046 0.000244141 41 0.895675 41 2.00024V25.0002C41 26.1048 40.1046 27.0002 39 27.0002H2C0.895431 27.0002 0 26.1048 0 25.0002V2.00024Z" fill="white"/>
</clipPath>
</defs>
</svg>
