<svg width="41" height="27" viewBox="0 0 41 27" fill="none" xmlns="http://www.w3.org/2000/svg">
<g clip-path="url(#clip0_6750_137900)">
<path fill-rule="evenodd" clip-rule="evenodd" d="M1.83203 0.000244141H39.168C39.9023 0.000244141 40.5 0.605713 40.5 1.35181V25.6487C40.5 26.3948 39.9023 27.0002 39.168 27.0002H1.83203C1.09766 27.0002 0.5 26.3948 0.5 25.6487V1.35181C0.5 0.605713 1.09766 0.000244141 1.83203 0.000244141Z" fill="#FEB3C7"/>
<path fill-rule="evenodd" clip-rule="evenodd" d="M12.3828 16.6799H13.7969V10.1252H12.3828V16.6799ZM21.3359 12.8909V12.3049H21.3164V12.301H20.082V12.3049H20.0117V16.6799H21.3516V14.387C21.3516 13.719 22.1094 13.4299 22.6328 13.5745C22.6367 13.5784 22.6406 13.5784 22.6484 13.5784V12.3049C22.1016 12.3049 21.5977 12.5393 21.3359 12.8909ZM16.7891 15.6643C16.0938 15.6643 15.5352 15.1409 15.5352 14.4924C15.5352 13.844 16.0938 13.3167 16.7891 13.3167C17.4805 13.3167 18.0391 13.844 18.0391 14.4924C18.0391 15.1409 17.4805 15.6643 16.7891 15.6643ZM18.0273 12.6057C17.6484 12.3401 17.1797 12.1838 16.6797 12.1838C15.3867 12.1838 14.3398 13.2151 14.3398 14.4924C14.3398 15.7659 15.3867 16.801 16.6797 16.801C17.1797 16.801 17.6484 16.6448 18.0273 16.3752V16.6799H19.1836V12.3049H18.0273V12.6057ZM25.9531 12.1838C25.4219 12.1838 24.9219 12.3479 24.5859 12.7971V12.3049H24.5664V12.301H23.3359V12.3049H23.2656V16.6799H24.6016V14.2854C24.6016 13.6213 25.0547 13.2932 25.5977 13.2932C26.1797 13.2932 26.5156 13.637 26.5156 14.2776V16.6799H27.8398V13.8948C27.8398 12.8792 27.0195 12.1838 25.9531 12.1838ZM34.5586 15.1252C34.0977 15.1252 33.7266 15.4963 33.7266 15.9495C33.7266 16.4026 34.0977 16.7698 34.5586 16.7698C35.0195 16.7698 35.3906 16.4026 35.3906 15.9495C35.3906 15.4963 35.0195 15.1252 34.5586 15.1252ZM30.7539 15.6643C30.0625 15.6643 29.5 15.1409 29.5 14.4924C29.5 13.844 30.0625 13.3167 30.7539 13.3167C31.4492 13.3167 32.0078 13.844 32.0078 14.4924C32.0078 15.1409 31.4492 15.6643 30.7539 15.6643ZM31.9961 12.6057C31.6133 12.3401 31.1484 12.1838 30.6445 12.1838C29.3555 12.1838 28.3086 13.2151 28.3086 14.4924C28.3086 15.7659 29.3555 16.801 30.6445 16.801C31.1484 16.801 31.6133 16.6448 31.9961 16.3752V16.6799H33.1523V12.3049H31.9961V12.6057ZM33.9883 12.3831H34.0547C34.0938 12.3831 34.1133 12.4026 34.1133 12.4338C34.1133 12.4612 34.1016 12.4846 34.0547 12.4846H33.9883V12.3831ZM33.9922 12.5393H34.0547L34.1094 12.6604H34.1758L34.1133 12.5276C34.1523 12.512 34.1719 12.4768 34.1719 12.4338C34.1719 12.3713 34.125 12.3284 34.0547 12.3284H33.9297V12.6604H33.9922V12.5393ZM6.16797 16.6799H7.64062V10.1252H6.16797V16.6799ZM11.4219 10.1252H9.99219C9.96094 11.6057 9.09766 12.8831 7.84375 13.5159L10.0391 16.6799H11.8359L9.83594 13.801C10.8359 12.8323 11.4023 11.5315 11.4219 10.1252ZM34.0391 12.2463C34.1797 12.2463 34.293 12.3596 34.293 12.5002C34.293 12.6409 34.1797 12.7542 34.0391 12.7542C33.8984 12.7542 33.7852 12.6409 33.7852 12.5002C33.7852 12.3596 33.8984 12.2463 34.0391 12.2463ZM34.0391 12.8127C34.2148 12.8127 34.3555 12.6721 34.3555 12.5002C34.3555 12.3245 34.2148 12.1838 34.0391 12.1838C33.8672 12.1838 33.7266 12.3245 33.7266 12.5002C33.7266 12.6721 33.8672 12.8127 34.0391 12.8127Z" fill="black"/>
</g>
<defs>
<clipPath id="clip0_6750_137900">
<path d="M0 2.00024C0 0.895675 0.89543 0.000244141 2 0.000244141H39C40.1046 0.000244141 41 0.895675 41 2.00024V25.0002C41 26.1048 40.1046 27.0002 39 27.0002H2C0.895431 27.0002 0 26.1048 0 25.0002V2.00024Z" fill="white"/>
</clipPath>
</defs>
</svg>
