<svg width="41" height="27" viewBox="0 0 41 27" fill="none" xmlns="http://www.w3.org/2000/svg">
<g clip-path="url(#clip0_6750_137898)">
<path fill-rule="evenodd" clip-rule="evenodd" d="M1.83203 0.000244141H39.168C39.9023 0.000244141 40.5 0.605713 40.5 1.35181V25.6487C40.5 26.3948 39.9023 27.0002 39.168 27.0002H1.83203C1.09766 27.0002 0.5 26.3948 0.5 25.6487V1.35181C0.5 0.605713 1.09766 0.000244141 1.83203 0.000244141Z" fill="white"/>
<path fill-rule="evenodd" clip-rule="evenodd" d="M17.1719 17.7424H24.0703V5.19165H17.1719V17.7424Z" fill="#FF5F00"/>
<path fill-rule="evenodd" clip-rule="evenodd" d="M17.6094 11.469C17.6094 8.92212 18.7852 6.65259 20.6211 5.19165C19.2812 4.12134 17.5859 3.48462 15.75 3.48462C11.3945 3.48462 7.86328 7.05884 7.86328 11.469C7.86328 15.8752 11.3945 19.4495 15.75 19.4495C17.5859 19.4495 19.2812 18.8127 20.6211 17.7424C18.7852 16.2815 17.6094 14.0159 17.6094 11.469Z" fill="#EB001B"/>
<path fill-rule="evenodd" clip-rule="evenodd" d="M33.1289 16.4143V16.1057H33.0508L32.957 16.3167L32.8672 16.1057H32.7852V16.4143H32.8438V16.1799L32.9297 16.3831H32.9883L33.0742 16.1799V16.4143H33.1289ZM32.625 16.4143V16.1565H32.7266V16.1057H32.4648V16.1565H32.5664V16.4143H32.625Z" fill="#F79E1B"/>
<path fill-rule="evenodd" clip-rule="evenodd" d="M33.375 11.469C33.375 15.8752 29.8477 19.4495 25.4922 19.4495C23.6523 19.4495 21.9609 18.8127 20.6211 17.7424C22.4531 16.2815 23.6328 14.0159 23.6328 11.469C23.6328 8.92212 22.4531 6.65259 20.6211 5.19165C21.9609 4.12134 23.6523 3.48462 25.4922 3.48462C29.8477 3.48462 33.375 7.05884 33.375 11.469Z" fill="#F79E1B"/>
<path fill-rule="evenodd" clip-rule="evenodd" d="M12.7656 23.5042V22.1995C12.7656 21.6995 12.4648 21.3713 11.9531 21.3713C11.6953 21.3713 11.418 21.4573 11.2266 21.7424C11.0781 21.5002 10.8633 21.3713 10.543 21.3713C10.3281 21.3713 10.1172 21.4377 9.94531 21.676V21.4143H9.49609V23.5042H9.94531V22.3518C9.94531 21.9807 10.1367 21.8049 10.4375 21.8049C10.7344 21.8049 10.8828 22.0042 10.8828 22.3518V23.5042H11.332V22.3518C11.332 21.9807 11.5469 21.8049 11.8242 21.8049C12.1211 21.8049 12.2734 22.0042 12.2734 22.3518V23.5042H12.7656ZM19.4062 21.4143H18.6797V20.7854H18.2305V21.4143H17.8242V21.8284H18.2305V22.7854C18.2305 23.2659 18.4258 23.5471 18.9375 23.5471C19.1289 23.5471 19.3437 23.4846 19.4922 23.3948L19.3633 23.0042C19.2344 23.0901 19.0859 23.1135 18.9805 23.1135C18.7656 23.1135 18.6797 22.9846 18.6797 22.7659V21.8284H19.4062V21.4143ZM23.207 21.3713C22.9531 21.3713 22.7812 21.5002 22.6758 21.676V21.4143H22.2266V23.5042H22.6758V22.3284C22.6758 21.9807 22.8242 21.7854 23.1016 21.7854C23.1875 21.7854 23.293 21.8049 23.3789 21.8284L23.5078 21.3948C23.4219 21.3713 23.293 21.3713 23.207 21.3713ZM17.4609 21.5901C17.25 21.4377 16.9492 21.3713 16.6289 21.3713C16.1172 21.3713 15.7734 21.6331 15.7734 22.0471C15.7734 22.3948 16.0312 22.5901 16.4805 22.6565L16.6953 22.676C16.9297 22.7229 17.0586 22.7854 17.0586 22.8948C17.0586 23.0471 16.8867 23.1565 16.5859 23.1565C16.2891 23.1565 16.0547 23.0471 15.9023 22.9377L15.6914 23.2854C15.9258 23.4612 16.2461 23.5471 16.5664 23.5471C17.1641 23.5471 17.5039 23.2659 17.5039 22.8752C17.5039 22.5042 17.2266 22.3088 16.8008 22.2424L16.5859 22.219C16.3945 22.1995 16.2461 22.1565 16.2461 22.0237C16.2461 21.8713 16.3945 21.7854 16.6289 21.7854C16.8867 21.7854 17.1406 21.8948 17.2695 21.9573L17.4609 21.5901ZM29.3789 21.3713C29.125 21.3713 28.9531 21.5002 28.8477 21.676V21.4143H28.3984V23.5042H28.8477V22.3284C28.8477 21.9807 28.9961 21.7854 29.2734 21.7854C29.3594 21.7854 29.4648 21.8049 29.5508 21.8284L29.6797 21.3948C29.5938 21.3713 29.4648 21.3713 29.3789 21.3713ZM23.6562 22.4612C23.6562 23.0901 24.082 23.5471 24.7461 23.5471C25.0469 23.5471 25.2578 23.4846 25.4727 23.3088L25.2578 22.9377C25.0859 23.0706 24.918 23.1331 24.7266 23.1331C24.3633 23.1331 24.1055 22.8752 24.1055 22.4612C24.1055 22.0666 24.3633 21.8049 24.7266 21.7854C24.918 21.7854 25.0859 21.8518 25.2578 21.9807L25.4727 21.6096C25.2578 21.4377 25.0469 21.3713 24.7461 21.3713C24.082 21.3713 23.6562 21.8284 23.6562 22.4612ZM27.8008 22.4612V21.4143H27.3516V21.676C27.2031 21.4807 26.9883 21.3713 26.7109 21.3713C26.1328 21.3713 25.6875 21.8284 25.6875 22.4612C25.6875 23.0901 26.1328 23.5471 26.7109 23.5471C27.0117 23.5471 27.2227 23.4377 27.3516 23.2424V23.5042H27.8008V22.4612ZM26.1562 22.4612C26.1562 22.0901 26.3906 21.7854 26.7734 21.7854C27.1367 21.7854 27.3945 22.0666 27.3945 22.4612C27.3945 22.8284 27.1367 23.1331 26.7734 23.1331C26.3906 23.1135 26.1562 22.8284 26.1562 22.4612ZM20.793 21.3713C20.1953 21.3713 19.7695 21.8049 19.7695 22.4612C19.7695 23.1135 20.1953 23.5471 20.8164 23.5471C21.1133 23.5471 21.4141 23.4612 21.6484 23.2659L21.4336 22.9377C21.2656 23.0706 21.0508 23.1565 20.8359 23.1565C20.5586 23.1565 20.2812 23.0276 20.2188 22.6565H21.7344V22.4807C21.7539 21.8049 21.3711 21.3713 20.793 21.3713ZM20.793 21.762C21.0742 21.762 21.2656 21.9377 21.3086 22.2659H20.2383C20.2812 21.9807 20.4727 21.762 20.793 21.762ZM31.9219 22.4612V20.5862H31.4727V21.676C31.3242 21.4807 31.1094 21.3713 30.832 21.3713C30.2578 21.3713 29.8086 21.8284 29.8086 22.4612C29.8086 23.0901 30.2578 23.5471 30.832 23.5471C31.1328 23.5471 31.3477 23.4377 31.4727 23.2424V23.5042H31.9219V22.4612ZM30.2773 22.4612C30.2773 22.0901 30.5117 21.7854 30.8984 21.7854C31.2617 21.7854 31.5156 22.0666 31.5156 22.4612C31.5156 22.8284 31.2617 23.1331 30.8984 23.1331C30.5117 23.1135 30.2773 22.8284 30.2773 22.4612ZM15.2852 22.4612V21.4143H14.8359V21.676C14.6875 21.4807 14.4727 21.3713 14.1953 21.3713C13.6172 21.3713 13.168 21.8284 13.168 22.4612C13.168 23.0901 13.6172 23.5471 14.1953 23.5471C14.4922 23.5471 14.707 23.4377 14.8359 23.2424V23.5042H15.2852V22.4612ZM13.6172 22.4612C13.6172 22.0901 13.8516 21.7854 14.2383 21.7854C14.6016 21.7854 14.8555 22.0666 14.8555 22.4612C14.8555 22.8284 14.6016 23.1331 14.2383 23.1331C13.8516 23.1135 13.6172 22.8284 13.6172 22.4612Z" fill="black"/>
<path fill-rule="evenodd" clip-rule="evenodd" d="M32.5586 23.4104V23.4534H32.5977C32.6055 23.4534 32.6133 23.4495 32.6172 23.4456C32.6211 23.4417 32.625 23.4377 32.625 23.4299C32.625 23.426 32.6211 23.4182 32.6172 23.4143C32.6133 23.4104 32.6055 23.4104 32.5977 23.4104H32.5586ZM32.5977 23.3831C32.6172 23.3831 32.6328 23.387 32.6406 23.3948C32.6523 23.4026 32.6562 23.4143 32.6562 23.4299C32.6562 23.4416 32.6523 23.4534 32.6445 23.4612C32.6367 23.469 32.625 23.4768 32.6094 23.4768L32.6602 23.5354H32.6211L32.5742 23.4768H32.5586V23.5354H32.5273V23.3831H32.5977ZM32.5898 23.5901C32.6055 23.5901 32.6211 23.5862 32.6367 23.5784C32.6523 23.5706 32.6641 23.5627 32.6758 23.551C32.6875 23.5393 32.6953 23.5237 32.7031 23.5081C32.707 23.4924 32.7109 23.4768 32.7109 23.4573C32.7109 23.4417 32.707 23.426 32.7031 23.4104C32.6953 23.3948 32.6875 23.3791 32.6758 23.3674C32.6641 23.3557 32.6523 23.3479 32.6367 23.3401C32.6211 23.3323 32.6055 23.3284 32.5898 23.3284C32.5703 23.3284 32.5547 23.3323 32.5391 23.3401C32.5234 23.3479 32.5117 23.3557 32.5 23.3674C32.4883 23.3791 32.4805 23.3948 32.4727 23.4104C32.4648 23.426 32.4609 23.4417 32.4609 23.4573C32.4609 23.4768 32.4648 23.4924 32.4727 23.5081C32.4805 23.5237 32.4883 23.5393 32.5 23.551C32.5117 23.5627 32.5234 23.5706 32.5391 23.5784C32.5547 23.5862 32.5703 23.5901 32.5898 23.5901ZM32.5898 23.2932C32.6094 23.2932 32.6328 23.2971 32.6523 23.3049C32.6719 23.3166 32.6875 23.3284 32.7031 23.3401C32.7188 23.3557 32.7305 23.3752 32.7383 23.3948C32.7461 23.4143 32.75 23.4377 32.75 23.4573C32.75 23.4807 32.7461 23.5041 32.7383 23.5237C32.7305 23.5432 32.7188 23.5627 32.7031 23.5745C32.6875 23.5901 32.6719 23.6018 32.6523 23.6135C32.6328 23.6213 32.6094 23.6252 32.5898 23.6252C32.5664 23.6252 32.543 23.6213 32.5234 23.6135C32.5039 23.6018 32.4844 23.5901 32.4727 23.5745C32.457 23.5627 32.4453 23.5432 32.4375 23.5237C32.4258 23.5041 32.4219 23.4807 32.4219 23.4573C32.4219 23.4377 32.4258 23.4143 32.4375 23.3948C32.4453 23.3752 32.457 23.3557 32.4727 23.3401C32.4844 23.3284 32.5039 23.3166 32.5234 23.3049C32.543 23.2971 32.5664 23.2932 32.5898 23.2932Z" fill="black"/>
</g>
<defs>
<clipPath id="clip0_6750_137898">
<path d="M0 2.00024C0 0.895675 0.89543 0.000244141 2 0.000244141H39C40.1046 0.000244141 41 0.895675 41 2.00024V25.0002C41 26.1048 40.1046 27.0002 39 27.0002H2C0.895431 27.0002 0 26.1048 0 25.0002V2.00024Z" fill="white"/>
</clipPath>
</defs>
</svg>
