<svg width="41" height="27" viewBox="0 0 41 27" fill="none" xmlns="http://www.w3.org/2000/svg">
<g clip-path="url(#clip0_6750_137899)">
<path fill-rule="evenodd" clip-rule="evenodd" d="M1.83203 0.000244141H39.168C39.9023 0.000244141 40.5 0.605713 40.5 1.35181V25.6487C40.5 26.3948 39.9023 27.0002 39.168 27.0002H1.83203C1.09766 27.0002 0.5 26.3948 0.5 25.6487V1.35181C0.5 0.605713 1.09766 0.000244141 1.83203 0.000244141Z" fill="white"/>
<path fill-rule="evenodd" clip-rule="evenodd" d="M25.6208 12.0706C25.4958 12.9026 24.8669 12.9026 24.2576 12.9026H23.9138L24.156 11.3479C24.1716 11.2541 24.2497 11.1838 24.3435 11.1838H24.5037C24.9177 11.1838 25.3083 11.1838 25.5076 11.4221C25.6287 11.5666 25.6638 11.7776 25.6208 12.0706ZM25.3552 9.89868H23.0662C22.9099 9.89868 22.7732 10.0159 22.7497 10.1721L21.824 16.1135C21.8044 16.2307 21.8943 16.3362 22.0115 16.3362H23.1872C23.2966 16.3362 23.3904 16.2541 23.4099 16.1448L23.6716 14.4612C23.6951 14.3049 23.8279 14.1877 23.9841 14.1877H24.7107C26.2185 14.1877 27.0896 13.4495 27.3162 11.9885C27.4177 11.3479 27.3201 10.844 27.0232 10.4924C26.699 10.1057 26.1208 9.89868 25.3552 9.89868Z" fill="#009CDE"/>
<path fill-rule="evenodd" clip-rule="evenodd" d="M9.2849 12.0706C9.1599 12.9026 8.531 12.9026 7.92553 12.9026H7.57787L7.82006 11.3479C7.83569 11.2541 7.91772 11.1838 8.01147 11.1838H8.16772C8.58178 11.1838 8.9724 11.1838 9.17553 11.4221C9.29272 11.5666 9.33178 11.7776 9.2849 12.0706ZM9.01928 9.89868H6.73022C6.57397 9.89868 6.44115 10.0159 6.41772 10.1721L5.49194 16.1135C5.4724 16.2307 5.56225 16.3362 5.67944 16.3362H6.77319C6.92944 16.3362 7.06225 16.219 7.08569 16.0627L7.33569 14.4612C7.35912 14.3049 7.49584 14.1877 7.65209 14.1877H8.37475C9.88256 14.1877 10.7537 13.4495 10.9802 11.9885C11.0857 11.3479 10.988 10.844 10.6912 10.4924C10.363 10.1057 9.78881 9.89868 9.01928 9.89868Z" fill="#003087"/>
<path fill-rule="evenodd" clip-rule="evenodd" d="M14.3359 14.2034C14.2305 14.8362 13.7344 15.262 13.1016 15.262C12.7812 15.262 12.5273 15.1604 12.3633 14.9612C12.2031 14.7698 12.1406 14.4924 12.1914 14.1838C12.2891 13.5549 12.7969 13.1174 13.4219 13.1174C13.7305 13.1174 13.9844 13.219 14.1523 13.4182C14.3203 13.6174 14.3867 13.8948 14.3359 14.2034ZM15.8672 12.0432H14.7695C14.6758 12.0432 14.5937 12.1135 14.582 12.2073L14.5312 12.5159L14.457 12.4026C14.2187 12.0549 13.6875 11.9377 13.1602 11.9377C11.9492 11.9377 10.9141 12.8674 10.7109 14.1721C10.6094 14.8206 10.7578 15.4417 11.1211 15.8752C11.457 16.2737 11.9336 16.4377 12.5039 16.4377C13.4805 16.4377 14.0195 15.8049 14.0195 15.8049L13.9727 16.1135C13.9531 16.2307 14.043 16.3362 14.1602 16.3362H15.1484C15.3047 16.3362 15.4375 16.219 15.4609 16.0627L16.0547 12.2659C16.0742 12.1487 15.9844 12.0432 15.8672 12.0432Z" fill="#003087"/>
<path fill-rule="evenodd" clip-rule="evenodd" d="M30.6719 14.2034C30.5664 14.8362 30.0703 15.262 29.4336 15.262C29.1172 15.262 28.8633 15.1604 28.6992 14.9612C28.5351 14.7698 28.4765 14.4924 28.5273 14.1838C28.625 13.5549 29.1289 13.1174 29.7539 13.1174C30.0664 13.1174 30.3203 13.219 30.4844 13.4182C30.6523 13.6174 30.7187 13.8948 30.6719 14.2034ZM32.1992 12.0432H31.1054C31.0117 12.0432 30.9297 12.1135 30.914 12.2073L30.8672 12.5159L30.789 12.4026C30.5547 12.0549 30.0234 11.9377 29.4961 11.9377C28.2851 11.9377 27.25 12.8674 27.0469 14.1721C26.9414 14.8206 27.0898 15.4417 27.457 15.8752C27.789 16.2737 28.2656 16.4377 28.8359 16.4377C29.8125 16.4377 30.3554 15.8049 30.3554 15.8049L30.3047 16.1135C30.289 16.2307 30.3789 16.3362 30.4961 16.3362H31.4804C31.6406 16.3362 31.7734 16.219 31.7969 16.0627L32.3906 12.2659C32.4062 12.1487 32.3164 12.0432 32.1992 12.0432Z" fill="#009CDE"/>
<path fill-rule="evenodd" clip-rule="evenodd" d="M21.7071 12.0432H20.6056C20.5001 12.0432 20.4024 12.094 20.3399 12.1838L18.8204 14.4495L18.1759 12.2737C18.1368 12.137 18.0118 12.0432 17.8712 12.0432H16.7892C16.6564 12.0432 16.5665 12.1721 16.6095 12.2971L17.8204 15.9026L16.6798 17.5315C16.5899 17.6604 16.6798 17.8362 16.836 17.8362H17.9376C18.0392 17.8362 18.1368 17.7854 18.1993 17.6995L21.8634 12.3479C21.9532 12.219 21.8595 12.0432 21.7071 12.0432Z" fill="#003087"/>
<path fill-rule="evenodd" clip-rule="evenodd" d="M33.4919 10.0627L32.5544 16.1135C32.5349 16.2307 32.6247 16.3362 32.7419 16.3362H33.6872C33.8435 16.3362 33.9763 16.219 33.9997 16.0627L34.9294 10.1213C34.9451 10.0041 34.8552 9.89868 34.738 9.89868H33.6833C33.5857 9.89868 33.5076 9.96899 33.4919 10.0627Z" fill="#009CDE"/>
</g>
<defs>
<clipPath id="clip0_6750_137899">
<path d="M0 2.00024C0 0.895675 0.89543 0.000244141 2 0.000244141H39C40.1046 0.000244141 41 0.895675 41 2.00024V25.0002C41 26.1048 40.1046 27.0002 39 27.0002H2C0.895431 27.0002 0 26.1048 0 25.0002V2.00024Z" fill="white"/>
</clipPath>
</defs>
</svg>
